<?xml version="1.0" encoding="UTF-8"?>
<svg width="521px" height="521px" version="1.1" baseProfile="full" xmlns="http://www.w3.org/2000/svg" xmlns:xlink="http://www.w3.org/1999/xlink" xmlns:ev="http://www.w3.org/2001/xml-events"><polygon fill="rgb(228,119,25)" stroke="rgb(228,119,25)" points="231.06502935290337,222.85047662258148 219.6909390091896,212.7568895816803 204.3491513133049,170.75105157494545"></polygon><polygon fill="rgb(247,132,25)" stroke="rgb(247,132,25)" points="206.07480609416962,156.4097401527688 204.3491513133049,170.75105157494545 204.00626683235168,134.58058404922485"></polygon><polygon fill="rgb(247,132,25)" stroke="rgb(247,132,25)" points="204.2868242263794,190.4851427078247 204.3491513133049,170.75105157494545 206.07480609416962,156.4097401527688"></polygon><polygon fill="rgb(119,57,0)" stroke="rgb(119,57,0)" points="204.00626683235168,134.58058404922485 195.23181903362274,122.80326569080353 198.87777811288834,119.91575002670288"></polygon><polygon fill="rgb(119,57,0)" stroke="rgb(119,57,0)" points="198.87777811288834,119.91575002670288 231.30891501903534,118.80858689546585 204.00626683235168,134.58058404922485"></polygon><polygon fill="rgb(119,57,0)" stroke="rgb(119,57,0)" points="198.87777811288834,119.91575002670288 192.8121150135994,113.50127291679382 197.26434808969498,109.53752732276917"></polygon><polygon fill="rgb(119,57,0)" stroke="rgb(119,57,0)" points="198.87777811288834,119.91575002670288 197.26434808969498,109.53752732276917 231.30891501903534,118.80858689546585"></polygon><polygon fill="rgb(119,57,0)" stroke="rgb(119,57,0)" points="191.14492619037628,104.18981909751892 195.0890652537346,100.77834284305573 197.26434808969498,109.53752732276917"></polygon><polygon fill="rgb(119,57,0)" stroke="rgb(119,57,0)" points="204.00626683235168,134.58058404922485 231.30891501903534,118.80858689546585 236.23122483491898,129.10513311624527"></polygon><polygon fill="rgb(119,57,0)" stroke="rgb(119,57,0)" points="231.30891501903534,118.80858689546585 197.26434808969498,109.53752732276917 195.0890652537346,100.77834284305573"></polygon><polygon fill="rgb(247,132,25)" stroke="rgb(247,132,25)" points="204.00626683235168,134.58058404922485 236.23122483491898,129.10513311624527 206.07480609416962,156.4097401527688"></polygon><polygon fill="rgb(119,57,0)" stroke="rgb(119,57,0)" points="195.0890652537346,100.77834284305573 179.71482247114182,69.11145257949829 213.60744631290436,80.0034077167511"></polygon><polygon fill="rgb(119,57,0)" stroke="rgb(119,57,0)" points="213.60744631290436,80.0034077167511 231.30891501903534,118.80858689546585 195.0890652537346,100.77834284305573"></polygon><polygon fill="rgb(119,57,0)" stroke="rgb(119,57,0)" points="236.23122483491898,129.10513311624527 231.30891501903534,118.80858689546585 213.60744631290436,80.0034077167511"></polygon><polygon fill="rgb(205,98,0)" stroke="rgb(205,98,0)" points="231.06502935290337,222.85047662258148 204.2868242263794,190.4851427078247 214.1750053167343,200.8829244375229"></polygon><polygon fill="rgb(247,132,25)" stroke="rgb(247,132,25)" points="206.07480609416962,156.4097401527688 214.1750053167343,200.8829244375229 204.2868242263794,190.4851427078247"></polygon><polygon fill="rgb(119,57,0)" stroke="rgb(119,57,0)" points="213.60744631290436,80.0034077167511 179.71482247114182,69.11145257949829 173.24829494953156,41.554166078567505"></polygon><polygon fill="rgb(192,172,157)" stroke="rgb(192,172,157)" points="308.8784122504294,236.6788101196289 321.0059611350298,228.87672078609467 279.24642588198185,262.6715512275696"></polygon><polygon fill="rgb(119,57,0)" stroke="rgb(119,57,0)" points="213.60744631290436,80.0034077167511 249.0862022638321,111.03935551643372 236.23122483491898,129.10513311624527"></polygon><polygon fill="rgb(228,119,25)" stroke="rgb(228,119,25)" points="236.23122483491898,129.10513311624527 249.0862022638321,111.03935551643372 231.00950199365616,173.62660610675812"></polygon><polygon fill="rgb(228,119,25)" stroke="rgb(228,119,25)" points="231.00950199365616,173.62660610675812 206.07480609416962,156.4097401527688 236.23122483491898,129.10513311624527"></polygon><polygon fill="rgb(228,116,36)" stroke="rgb(228,116,36)" points="206.07480609416962,156.4097401527688 214.81001257896423,181.8837577700615 214.1750053167343,200.8829244375229"></polygon><polygon fill="rgb(205,98,0)" stroke="rgb(205,98,0)" points="214.81001257896423,181.8837577700615 206.07480609416962,156.4097401527688 231.00950199365616,173.62660610675812"></polygon><polygon fill="rgb(119,57,0)" stroke="rgb(119,57,0)" points="173.24829494953156,41.554166078567505 249.0862022638321,111.03935551643372 213.60744631290436,80.0034077167511"></polygon><polygon fill="rgb(247,132,25)" stroke="rgb(247,132,25)" points="214.1750053167343,200.8829244375229 214.81001257896423,181.8837577700615 225.7220859527588,197.66553211212158"></polygon><polygon fill="rgb(225,119,25)" stroke="rgb(225,119,25)" points="366.38433530926704,106.77505087852478 314.7355558052659,62.78828501701355 340.73166286945343,67.79936599731445"></polygon><polygon fill="rgb(36,51,67)" stroke="rgb(36,51,67)" points="225.7220859527588,197.66553211212158 214.81001257896423,181.8837577700615 224.9322825074196,179.50851702690125"></polygon><polygon fill="rgb(228,119,25)" stroke="rgb(228,119,25)" points="249.0862022638321,111.03935551643372 173.24829494953156,41.554166078567505 258.7570845782757,57.48103380203247"></polygon><polygon fill="rgb(205,98,0)" stroke="rgb(205,98,0)" points="231.00950199365616,173.62660610675812 224.9322825074196,179.50851702690125 214.81001257896423,181.8837577700615"></polygon><polygon fill="rgb(247,132,25)" stroke="rgb(247,132,25)" points="276.7434870749712,116.82802283763885 249.0862022638321,111.03935551643372 258.7570845782757,57.48103380203247"></polygon><polygon fill="rgb(247,132,25)" stroke="rgb(247,132,25)" points="258.7570845782757,57.48103380203247 314.7355558052659,62.78828501701355 276.7434870749712,116.82802283763885"></polygon><polygon fill="rgb(247,132,25)" stroke="rgb(247,132,25)" points="187.10784101486206,241.78933668136597 214.1750053167343,200.8829244375229 225.7220859527588,197.66553211212158"></polygon><polygon fill="rgb(205,98,0)" stroke="rgb(205,98,0)" points="224.9322825074196,179.50851702690125 231.00950199365616,173.62660610675812 225.7220859527588,197.66553211212158"></polygon><polygon fill="rgb(228,119,25)" stroke="rgb(228,119,25)" points="391.8014968633652,240.02278518676758 377.1151876151562,283.74588775634766 301.2419847752899,255.25717878341675"></polygon><polygon fill="rgb(192,172,157)" stroke="rgb(192,172,157)" points="223.06484597921371,272.8013598918915 301.2419847752899,255.25717878341675 279.24642588198185,262.6715512275696"></polygon><polygon fill="rgb(228,119,25)" stroke="rgb(228,119,25)" points="301.2419847752899,255.25717878341675 309.56074253469706,234.21414971351624 391.8014968633652,240.02278518676758"></polygon><polygon fill="rgb(205,98,0)" stroke="rgb(205,98,0)" points="301.2419847752899,255.25717878341675 275.8031220883131,227.3614797592163 309.56074253469706,234.21414971351624"></polygon><polygon fill="rgb(247,132,25)" stroke="rgb(247,132,25)" points="249.0862022638321,111.03935551643372 276.7434870749712,116.82802283763885 251.1373079419136,180.75791430473328"></polygon><polygon fill="rgb(247,132,25)" stroke="rgb(247,132,25)" points="251.1373079419136,180.75791430473328 231.00950199365616,173.62660610675812 249.0862022638321,111.03935551643372"></polygon><polygon fill="rgb(214,194,178)" stroke="rgb(214,194,178)" points="212.05247324705124,269.38082242012024 301.2419847752899,255.25717878341675 223.06484597921371,272.8013598918915"></polygon><polygon fill="rgb(192,172,157)" stroke="rgb(192,172,157)" points="279.24642588198185,262.6715512275696 220.3108977675438,279.639319896698 223.06484597921371,272.8013598918915"></polygon><polygon fill="rgb(214,194,178)" stroke="rgb(214,194,178)" points="301.2419847752899,255.25717878341675 212.05247324705124,269.38082242012024 207.20419090986252,252.9750258922577"></polygon><polygon fill="rgb(228,119,25)" stroke="rgb(228,119,25)" points="207.20419090986252,252.9750258922577 275.8031220883131,227.3614797592163 301.2419847752899,255.25717878341675"></polygon><polygon fill="rgb(247,132,25)" stroke="rgb(247,132,25)" points="225.7220859527588,197.66553211212158 189.29540926218033,240.80547165870667 187.10784101486206,241.78933668136597"></polygon><polygon fill="rgb(247,132,25)" stroke="rgb(247,132,25)" points="224.264406144619,192.4400829076767 231.00950199365616,173.62660610675812 251.1373079419136,180.75791430473328"></polygon><polygon fill="rgb(247,132,25)" stroke="rgb(247,132,25)" points="251.1373079419136,180.75791430473328 241.95869261026382,199.54110646247864 224.264406144619,192.4400829076767"></polygon><polygon fill="rgb(225,119,25)" stroke="rgb(225,119,25)" points="377.5666472315788,170.92026829719543 374.59325367212296,164.6965312063694 366.38433530926704,106.77505087852478"></polygon><polygon fill="rgb(225,119,25)" stroke="rgb(225,119,25)" points="366.38433530926704,106.77505087852478 381.7271535396576,159.45356395840645 378.0748402476311,151.3662200421095"></polygon><polygon fill="rgb(247,132,25)" stroke="rgb(247,132,25)" points="224.264406144619,192.4400829076767 241.95869261026382,199.54110646247864 204.23761957883835,249.04327583312988"></polygon><polygon fill="rgb(247,132,25)" stroke="rgb(247,132,25)" points="204.23761957883835,249.04327583312988 189.29540926218033,240.80547165870667 224.264406144619,192.4400829076767"></polygon><polygon fill="rgb(192,172,157)" stroke="rgb(192,172,157)" points="199.4202442765236,267.10635924339294 185.77141326665878,256.6396071910858 205.64221560955048,268.450971364975"></polygon><polygon fill="rgb(192,172,157)" stroke="rgb(192,172,157)" points="205.64221560955048,268.450971364975 220.3108977675438,279.639319896698 199.4202442765236,267.10635924339294"></polygon><polygon fill="rgb(228,119,25)" stroke="rgb(228,119,25)" points="251.1373079419136,180.75791430473328 276.7434870749712,116.82802283763885 320.3986939266324,150.49505361914635"></polygon><polygon fill="rgb(225,119,25)" stroke="rgb(225,119,25)" points="385.21997249126434,147.26090164482594 381.87665754556656,140.33379569649696 366.38433530926704,106.77505087852478"></polygon><polygon fill="rgb(205,98,0)" stroke="rgb(205,98,0)" points="262.82947343587875,193.60975402593613 251.8374683856964,208.41393971443176 251.1373079419136,180.75791430473328"></polygon><polygon fill="rgb(225,119,25)" stroke="rgb(225,119,25)" points="251.8374683856964,208.41393971443176 241.95869261026382,199.54110646247864 251.1373079419136,180.75791430473328"></polygon><polygon fill="rgb(36,51,67)" stroke="rgb(36,51,67)" points="251.8374683856964,208.41393971443176 262.82947343587875,193.60975402593613 279.07767698168755,206.69119727611542"></polygon><polygon fill="rgb(247,132,25)" stroke="rgb(247,132,25)" points="275.8031220883131,227.3614797592163 251.8374683856964,208.41393971443176 279.07767698168755,206.69119727611542"></polygon><polygon fill="rgb(205,98,0)" stroke="rgb(205,98,0)" points="279.07767698168755,206.69119727611542 262.82947343587875,193.60975402593613 251.1373079419136,180.75791430473328"></polygon><polygon fill="rgb(228,119,25)" stroke="rgb(228,119,25)" points="320.3986939266324,150.49505361914635 304.38843219168484,189.3382013440132 251.1373079419136,180.75791430473328"></polygon><polygon fill="rgb(119,57,0)" stroke="rgb(119,57,0)" points="367.19488444924355,181.22983449697495 320.3986939266324,150.49505361914635 346.9396027326584,145.91080874204636"></polygon><polygon fill="rgb(247,132,25)" stroke="rgb(247,132,25)" points="367.19488444924355,181.22983449697495 304.38843219168484,189.3382013440132 320.3986939266324,150.49505361914635"></polygon><polygon fill="rgb(228,116,36)" stroke="rgb(228,116,36)" points="241.95869261026382,199.54110646247864 251.8374683856964,208.41393971443176 204.23761957883835,249.04327583312988"></polygon><polygon fill="rgb(247,132,25)" stroke="rgb(247,132,25)" points="251.8374683856964,208.41393971443176 275.8031220883131,227.3614797592163 207.20419090986252,252.9750258922577"></polygon><polygon fill="rgb(247,132,25)" stroke="rgb(247,132,25)" points="207.20419090986252,252.9750258922577 204.23761957883835,249.04327583312988 251.8374683856964,208.41393971443176"></polygon><polygon fill="rgb(205,98,0)" stroke="rgb(205,98,0)" points="251.1373079419136,180.75791430473328 304.38843219168484,189.3382013440132 279.07767698168755,206.69119727611542"></polygon><polygon fill="rgb(119,57,0)" stroke="rgb(119,57,0)" points="320.3986939266324,150.49505361914635 276.7434870749712,116.82802283763885 326.50001284480095,97.57849645614624"></polygon><polygon fill="rgb(119,57,0)" stroke="rgb(119,57,0)" points="326.50001284480095,97.57849645614624 346.9396027326584,145.91080874204636 320.3986939266324,150.49505361914635"></polygon><polygon fill="rgb(228,116,36)" stroke="rgb(228,116,36)" points="304.38843219168484,189.3382013440132 275.8031220883131,227.3614797592163 279.07767698168755,206.69119727611542"></polygon><polygon fill="rgb(247,132,25)" stroke="rgb(247,132,25)" points="309.56074253469706,234.21414971351624 275.8031220883131,227.3614797592163 304.38843219168484,189.3382013440132"></polygon><polygon fill="rgb(119,57,0)" stroke="rgb(119,57,0)" points="374.59325367212296,164.6965312063694 367.19488444924355,181.22983449697495 346.9396027326584,145.91080874204636"></polygon><polygon fill="rgb(192,172,157)" stroke="rgb(192,172,157)" points="212.05247324705124,269.38082242012024 223.06484597921371,272.8013598918915 220.3108977675438,279.639319896698"></polygon><polygon fill="rgb(119,57,0)" stroke="rgb(119,57,0)" points="374.59325367212296,164.6965312063694 346.9396027326584,145.91080874204636 378.0748402476311,151.3662200421095"></polygon><polygon fill="rgb(192,172,157)" stroke="rgb(192,172,157)" points="220.3108977675438,279.639319896698 205.64221560955048,268.450971364975 212.05247324705124,269.38082242012024"></polygon><polygon fill="rgb(247,132,25)" stroke="rgb(247,132,25)" points="304.38843219168484,189.3382013440132 391.8014968633652,240.02278518676758 309.56074253469706,234.21414971351624"></polygon><polygon fill="rgb(247,132,25)" stroke="rgb(247,132,25)" points="304.38843219168484,189.3382013440132 367.19488444924355,181.22983449697495 391.8014968633652,240.02278518676758"></polygon><polygon fill="rgb(119,57,0)" stroke="rgb(119,57,0)" points="381.87665754556656,140.33379569649696 346.9396027326584,145.91080874204636 326.50001284480095,97.57849645614624"></polygon><polygon fill="rgb(119,57,0)" stroke="rgb(119,57,0)" points="346.9396027326584,145.91080874204636 381.87665754556656,140.33379569649696 378.0748402476311,151.3662200421095"></polygon><polygon fill="rgb(0,0,0)" stroke="rgb(0,0,0)" points="205.64221560955048,268.450971364975 185.77141326665878,256.6396071910858 179.14736247062683,248.66245365142822"></polygon><polygon fill="rgb(0,0,0)" stroke="rgb(0,0,0)" points="187.10784101486206,241.78933668136597 189.29540926218033,240.80547165870667 180.35423988103867,247.16027212142944"></polygon><polygon fill="rgb(0,0,0)" stroke="rgb(0,0,0)" points="180.35423988103867,247.16027212142944 189.29540926218033,240.80547165870667 204.23761957883835,249.04327583312988"></polygon><polygon fill="rgb(119,57,0)" stroke="rgb(119,57,0)" points="326.50001284480095,97.57849645614624 276.7434870749712,116.82802283763885 351.94717240333557,55.00252819061279"></polygon><polygon fill="rgb(225,119,25)" stroke="rgb(225,119,25)" points="351.94717240333557,55.00252819061279 276.7434870749712,116.82802283763885 314.7355558052659,62.78828501701355"></polygon><polygon fill="rgb(0,0,0)" stroke="rgb(0,0,0)" points="179.14736247062683,248.66245365142822 180.35423988103867,247.16027212142944 195.02771919965744,255.6566812992096"></polygon><polygon fill="rgb(0,0,0)" stroke="rgb(0,0,0)" points="195.02771919965744,255.6566812992096 196.98622077703476,259.08846044540405 179.14736247062683,248.66245365142822"></polygon><polygon fill="rgb(0,0,0)" stroke="rgb(0,0,0)" points="179.14736247062683,248.66245365142822 196.98622077703476,259.08846044540405 205.64221560955048,268.450971364975"></polygon><polygon fill="rgb(0,0,0)" stroke="rgb(0,0,0)" points="207.20419090986252,252.9750258922577 212.05247324705124,269.38082242012024 205.64221560955048,268.450971364975"></polygon><polygon fill="rgb(0,0,0)" stroke="rgb(0,0,0)" points="204.23761957883835,249.04327583312988 195.02771919965744,255.6566812992096 180.35423988103867,247.16027212142944"></polygon><polygon fill="rgb(0,0,0)" stroke="rgb(0,0,0)" points="205.64221560955048,268.450971364975 196.98622077703476,259.08846044540405 207.20419090986252,252.9750258922577"></polygon><polygon fill="rgb(0,0,0)" stroke="rgb(0,0,0)" points="195.02771919965744,255.6566812992096 204.23761957883835,249.04327583312988 207.20419090986252,252.9750258922577"></polygon><polygon fill="rgb(119,57,0)" stroke="rgb(119,57,0)" points="367.19488444924355,181.22983449697495 374.59325367212296,164.6965312063694 377.5666472315788,170.92026829719543"></polygon><polygon fill="rgb(0,0,0)" stroke="rgb(0,0,0)" points="207.20419090986252,252.9750258922577 196.98622077703476,259.08846044540405 195.02771919965744,255.6566812992096"></polygon><polygon fill="rgb(119,57,0)" stroke="rgb(119,57,0)" points="374.59325367212296,164.6965312063694 378.0748402476311,151.3662200421095 381.7271535396576,159.45356395840645"></polygon><polygon fill="rgb(119,57,0)" stroke="rgb(119,57,0)" points="385.21997249126434,147.26090164482594 378.0748402476311,151.3662200421095 381.87665754556656,140.33379569649696"></polygon><polygon fill="rgb(119,57,0)" stroke="rgb(119,57,0)" points="326.50001284480095,97.57849645614624 381.41535609960556,97.72528910636902 381.87665754556656,140.33379569649696"></polygon><polygon fill="rgb(119,57,0)" stroke="rgb(119,57,0)" points="351.94717240333557,55.00252819061279 381.41535609960556,97.72528910636902 326.50001284480095,97.57849645614624"></polygon></svg>